<mxfile host="Electron" modified="2025-03-29T18:52:19.067Z" agent="Mozilla/5.0 (Windows NT 10.0; Win64; x64) AppleWebKit/537.36 (KHTML, like Gecko) draw.io/22.0.2 Chrome/114.0.5735.289 Electron/25.8.4 Safari/537.36" etag="9lyYByWgtSHnEaMWuc84" version="22.0.2" type="device">
  <diagram name="Page-1" id="hJIsQSkyJ_ZAACaIbqWK">
    <mxGraphModel dx="823" dy="391" grid="1" gridSize="10" guides="1" tooltips="1" connect="1" arrows="1" fold="1" page="1" pageScale="1" pageWidth="827" pageHeight="1169" math="0" shadow="0">
      <root>
        <mxCell id="0" />
        <mxCell id="1" parent="0" />
        <mxCell id="kNaprje9HlNycvqmQmvh-2" value="Plaintext" style="sketch=0;pointerEvents=1;shadow=0;dashed=0;html=1;strokeColor=none;fillColor=#505050;labelPosition=center;verticalLabelPosition=bottom;verticalAlign=top;outlineConnect=0;align=center;shape=mxgraph.office.concepts.document;" vertex="1" parent="1">
          <mxGeometry x="40" y="170" width="50" height="60" as="geometry" />
        </mxCell>
        <mxCell id="kNaprje9HlNycvqmQmvh-3" value="" style="endArrow=classic;html=1;rounded=0;fontSize=26;" edge="1" parent="1">
          <mxGeometry width="50" height="50" relative="1" as="geometry">
            <mxPoint x="100" y="199.5" as="sourcePoint" />
            <mxPoint x="190" y="200" as="targetPoint" />
          </mxGeometry>
        </mxCell>
        <mxCell id="kNaprje9HlNycvqmQmvh-4" value="Ciphertext" style="sketch=0;pointerEvents=1;shadow=0;dashed=0;html=1;strokeColor=none;fillColor=#505050;labelPosition=center;verticalLabelPosition=bottom;verticalAlign=top;outlineConnect=0;align=center;shape=mxgraph.office.concepts.document_blank;" vertex="1" parent="1">
          <mxGeometry x="200" y="170" width="50" height="60" as="geometry" />
        </mxCell>
        <mxCell id="kNaprje9HlNycvqmQmvh-8" value="" style="image;html=1;image=img/lib/clip_art/general/Lock_128x128.png" vertex="1" parent="1">
          <mxGeometry x="205" y="180" width="40" height="40" as="geometry" />
        </mxCell>
        <mxCell id="kNaprje9HlNycvqmQmvh-9" value="Plaintext" style="sketch=0;pointerEvents=1;shadow=0;dashed=0;html=1;strokeColor=none;fillColor=#505050;labelPosition=center;verticalLabelPosition=bottom;verticalAlign=top;outlineConnect=0;align=center;shape=mxgraph.office.concepts.document;" vertex="1" parent="1">
          <mxGeometry x="360" y="170" width="50" height="60" as="geometry" />
        </mxCell>
        <mxCell id="kNaprje9HlNycvqmQmvh-10" value="" style="endArrow=classic;html=1;rounded=0;fontSize=26;" edge="1" parent="1">
          <mxGeometry width="50" height="50" relative="1" as="geometry">
            <mxPoint x="260" y="200" as="sourcePoint" />
            <mxPoint x="350" y="200.5" as="targetPoint" />
          </mxGeometry>
        </mxCell>
        <mxCell id="kNaprje9HlNycvqmQmvh-12" value="" style="points=[[0,0.5,0],[0.24,0,0],[0.5,0.28,0],[0.995,0.475,0],[0.5,0.72,0],[0.24,1,0]];verticalLabelPosition=bottom;sketch=0;html=1;verticalAlign=top;aspect=fixed;align=center;pointerEvents=1;shape=mxgraph.cisco19.key;fillColor=#005073;strokeColor=none;" vertex="1" parent="1">
          <mxGeometry x="120" y="170" width="50" height="22.5" as="geometry" />
        </mxCell>
        <mxCell id="kNaprje9HlNycvqmQmvh-13" value="" style="points=[[0,0.5,0],[0.24,0,0],[0.5,0.28,0],[0.995,0.475,0],[0.5,0.72,0],[0.24,1,0]];verticalLabelPosition=bottom;sketch=0;html=1;verticalAlign=top;aspect=fixed;align=center;pointerEvents=1;shape=mxgraph.cisco19.key;fillColor=#005073;strokeColor=none;" vertex="1" parent="1">
          <mxGeometry x="280" y="170" width="50" height="22.5" as="geometry" />
        </mxCell>
        <mxCell id="kNaprje9HlNycvqmQmvh-14" value="AES sleutel" style="text;html=1;align=center;verticalAlign=middle;resizable=0;points=[];autosize=1;strokeColor=none;fillColor=none;" vertex="1" parent="1">
          <mxGeometry x="100" y="140" width="90" height="30" as="geometry" />
        </mxCell>
        <mxCell id="kNaprje9HlNycvqmQmvh-15" value="AES sleutel" style="text;html=1;align=center;verticalAlign=middle;resizable=0;points=[];autosize=1;strokeColor=none;fillColor=none;" vertex="1" parent="1">
          <mxGeometry x="260" y="140" width="90" height="30" as="geometry" />
        </mxCell>
        <mxCell id="kNaprje9HlNycvqmQmvh-16" value="Encryptie" style="text;html=1;align=center;verticalAlign=middle;resizable=0;points=[];autosize=1;strokeColor=none;fillColor=none;" vertex="1" parent="1">
          <mxGeometry x="110" y="200" width="70" height="30" as="geometry" />
        </mxCell>
        <mxCell id="kNaprje9HlNycvqmQmvh-17" value="Decryptie" style="text;html=1;align=center;verticalAlign=middle;resizable=0;points=[];autosize=1;strokeColor=none;fillColor=none;" vertex="1" parent="1">
          <mxGeometry x="270" y="200" width="70" height="30" as="geometry" />
        </mxCell>
      </root>
    </mxGraphModel>
  </diagram>
</mxfile>
